<?xml version="1.0" encoding="iso-8859-1"?>
<!-- Uploaded to: SVG Repo, www.svgrepo.com, Generator: SVG Repo Mixer Tools -->
<svg height="800px" width="800px" version="1.1" id="Layer_1" xmlns="http://www.w3.org/2000/svg" xmlns:xlink="http://www.w3.org/1999/xlink" 
	 viewBox="0 0 503.467 503.467" xml:space="preserve">
<g transform="translate(1 1)">
	<path style="fill:#E4F2DE;" d="M429.933,233.667c0,3.413,0,6.827,0,10.24c0,2.56,0,5.12-0.853,6.827
		c0,4.267-0.853,8.533-1.707,11.947c0,2.56-0.853,4.267-0.853,6.827c0,1.707-0.853,4.267-1.707,5.973
		c-0.853,1.707-0.853,4.267-1.707,5.973l0,0c-0.853,2.56-1.707,4.267-2.56,6.827c-0.853,4.267-2.56,8.533-4.267,11.947
		c-0.853,1.707-1.707,4.267-2.56,5.973c-0.853,1.707-1.707,4.267-2.56,5.973c-5.12,10.24-11.093,20.48-18.773,29.867
		c0,0,0,0.853-0.853,0.853c-7.68,10.24-17.92,20.48-28.16,29.013c-1.707,1.707-3.413,2.56-5.12,4.267
		c-2.56,2.56-5.973,4.267-8.533,5.973s-4.267,2.56-6.827,4.267c-1.707,0.853-2.56,1.707-4.267,2.56
		c-1.707,0.853-3.413,1.707-5.12,3.413c-9.387,5.12-18.773,8.533-29.013,11.947c-1.707,0.853-3.413,0.853-4.267,1.707
		c-1.707,0-3.413,0.853-5.12,0.853c-0.853,0-0.853,0-1.707,0c-5.12,1.707-11.093,2.56-17.067,3.413c-2.56,0-5.973,0.853-9.387,0.853
		c-2.56,0-5.973,0.853-8.533,0.853c-3.413,0-5.973,0-9.387,0c-3.413,0-5.973,0-9.387,0c-3.413,0-5.973,0-9.387-0.853
		c-2.56,0-5.12-0.853-7.68-0.853c-10.24-1.707-20.48-4.267-30.72-6.827c-2.56-0.853-4.267-1.707-6.827-2.56
		c-2.56-0.853-5.12-2.56-8.533-3.413c-2.56-0.853-4.267-1.707-6.827-3.413c0,0,0,0-0.853,0c-1.707-0.853-4.267-1.707-5.973-3.413
		c-3.413-1.707-5.973-3.413-9.387-5.12c-2.56-1.707-4.267-2.56-6.827-4.267c-1.707-0.853-4.267-2.56-5.973-4.267
		c-1.707-0.853-3.413-2.56-5.12-4.267c-1.707-1.707-3.413-2.56-5.12-4.267c-3.413-2.56-6.827-5.12-9.387-8.533
		c-6.827-5.973-11.947-12.8-17.92-19.627c-11.093-14.507-22.187-34.987-28.16-52.907c-0.853-1.707-0.853-3.413-1.707-5.12
		c0-0.853,0-0.853-0.853-1.707c-0.853-1.707-0.853-3.413-1.707-5.12c-0.853-2.56-0.853-4.267-1.707-6.827
		c-2.56-11.947-3.413-23.893-3.413-35.84c0-3.413,0-6.827,0-10.24c0-2.56,0-5.12,0.853-6.827c0-4.267,0.853-8.533,1.707-11.947
		c0-2.56,0.853-4.267,0.853-6.827c0-1.707,0.853-4.267,1.707-5.973s0.853-4.267,1.707-5.973l0,0c0.853-2.56,1.707-4.267,2.56-6.827
		c0.853-4.267,2.56-8.533,4.267-11.947c0.853-1.707,1.707-4.267,2.56-5.973c0.853-1.707,1.707-4.267,2.56-5.973
		c5.12-10.24,11.093-20.48,18.773-29.867c0,0,0-0.853,0.853-0.853c7.68-10.24,17.067-20.48,28.16-29.013
		c1.707-1.707,3.413-2.56,5.12-4.267c2.56-2.56,5.973-4.267,8.533-5.973c2.56-1.707,4.267-2.56,6.827-4.267
		c1.707-0.853,2.56-1.707,4.267-2.56c1.707-0.853,3.413-1.707,5.12-3.413c9.387-5.12,18.773-8.533,29.013-11.947
		c1.707-0.853,3.413-0.853,4.267-1.707c1.707,0,3.413-0.853,5.12-0.853c0.853,0,0.853,0,1.707,0
		c5.12-1.707,11.093-2.56,17.067-3.413c2.56,0,5.973-0.853,9.387-0.853c2.56,0,5.973-0.853,8.533-0.853c3.413,0,5.973,0,9.387,0
		c3.413,0,5.973,0,9.387,0c3.413,0,5.973,0,9.387,0.853c2.56,0,5.12,0.853,7.68,0.853c10.24,1.707,20.48,4.267,30.72,6.827
		c2.56,0.853,4.267,1.707,6.827,2.56c2.56,0.853,5.12,1.707,7.68,3.413c2.56,0.853,5.12,2.56,7.68,3.413c0,0,0,0,0.853,0
		c1.707,0.853,4.267,1.707,5.973,3.413c3.413,1.707,5.973,3.413,9.387,5.12c2.56,1.707,5.12,3.413,7.68,4.267
		c1.707,0.853,3.413,2.56,5.12,3.413c1.707,0.853,3.413,2.56,5.12,4.267c3.413,2.56,6.827,5.12,10.24,8.533
		c7.68,7.68,15.36,15.36,22.187,23.893c11.093,14.507,22.187,34.987,28.16,52.907c0.853,1.707,0.853,3.413,1.707,5.12
		c0,0.853,0.853,0.853,0.853,1.707c0.853,1.707,0.853,3.413,0.853,5.12c0.853,2.56,0.853,4.267,1.707,6.827
		C429.08,208.92,429.933,220.867,429.933,233.667"/>
	<g>
		<path style="fill:#80D6FA;" d="M54.467,88.6l53.76,35.84c-6.827,9.387-13.653,19.627-18.773,29.867
			c-0.853,1.707-1.707,4.267-2.56,5.973c-0.853,1.707-1.707,4.267-2.56,5.973c-2.56,5.973-5.12,12.8-6.827,18.773l0,0
			c-0.853,1.707-0.853,4.267-1.707,5.973s-0.853,4.267-1.707,5.973c0,2.56-0.853,4.267-0.853,6.827
			c-0.853,4.267-0.853,7.68-1.707,11.947c0,2.56-0.853,5.12-0.853,6.827c0,3.413,0,6.827,0,10.24H2.413L54.467,88.6z"/>
		<path style="fill:#80D6FA;" d="M371.053,101.4c-3.413-2.56-6.827-5.973-10.24-8.533c-1.707-1.707-3.413-2.56-5.12-4.267
			c-1.707-0.853-3.413-2.56-5.12-3.413c-2.56-1.707-5.12-3.413-6.827-5.12c-3.413-1.707-5.973-3.413-9.387-5.12
			c-1.707-0.853-4.267-2.56-5.973-3.413c0,0,0,0-0.853,0c-2.56-1.707-5.12-2.56-7.68-3.413c-2.56-0.853-5.12-1.707-7.68-3.413
			c-2.56-0.853-4.267-1.707-6.827-2.56l20.48-59.733l119.467,85.333l-53.76,36.693C386.413,116.76,379.587,108.227,371.053,101.4"/>
		<path style="fill:#80D6FA;" d="M447,378.734l-116.907,85.333l-24.747-59.733c10.24-3.413,19.627-6.827,29.013-11.947
			c1.707-0.853,3.413-1.707,5.12-3.413c1.707-0.853,2.56-1.707,4.267-2.56c2.56-1.707,4.267-2.56,6.827-4.267
			s5.973-4.267,8.533-5.973c1.707-1.707,3.413-2.56,5.12-4.267c11.093-8.533,19.627-17.067,28.16-29.013c0,0,0-0.853,0.853-0.853
			L447,378.734z"/>
		<path style="fill:#80D6FA;" d="M305.347,404.334l24.747,59.733H170.52l23.893-59.733c9.387,3.413,19.627,5.973,30.72,6.827
			c2.56,0,5.12,0.853,6.827,0.853c3.413,0,5.973,0.853,9.387,0.853c3.413,0,5.973,0,9.387,0c3.413,0,6.827,0,9.387,0
			s5.973,0,8.533-0.853c2.56,0,5.973-0.853,9.387-0.853c5.973-0.853,11.093-1.707,17.067-3.413c0.853,0,0.853,0,1.707,0
			c1.707,0,3.413-0.853,5.12-1.707C302.787,405.187,304.493,405.187,305.347,404.334"/>
		<path style="fill:#80D6FA;" d="M74.947,269.507c0.853,2.56,0.853,4.267,1.707,6.827c0,1.707,0.853,3.413,0.853,5.12
			c0,0.853,0,0.853,0.853,1.707c5.973,21.333,16.213,41.813,29.867,58.88l-53.76,36.693l-51.2-145.067h68.267
			C71.533,246.467,73.24,258.414,74.947,269.507"/>
		<path style="fill:#80D6FA;" d="M426.52,197.827c-0.853-2.56-0.853-4.267-1.707-6.827c0-1.707-0.853-3.413-0.853-5.12
			c0-0.853,0-0.853-0.853-1.707c-5.973-21.333-16.213-41.813-29.867-58.88L447,88.6l51.2,145.067h-68.267
			C429.933,220.867,428.227,208.92,426.52,197.827"/>
		<path style="fill:#80D6FA;" d="M498.2,233.667L447,378.734l-53.76-35.84c6.827-9.387,13.653-19.627,18.773-29.867
			c0.853-1.707,1.707-3.413,2.56-5.973c0.853-1.707,1.707-4.267,2.56-5.973c2.56-5.973,5.12-12.8,6.827-18.773l0,0
			c0.853-1.707,0.853-4.267,1.707-5.973c0.853-1.707,0.853-4.267,1.707-5.973c0-2.56,0.853-4.267,0.853-6.827
			c0.853-4.267,1.707-7.68,1.707-11.947c0-2.56,0.853-5.12,0.853-6.827c0-3.413,0-6.827,0-10.24H498.2V233.667z"/>
		<path style="fill:#80D6FA;" d="M173.933,3.267L196.12,63c-10.24,3.413-19.627,6.827-29.013,11.947
			c-1.707,0.853-3.413,1.707-5.12,3.413c-1.707,0.853-2.56,1.707-4.267,2.56c-2.56,1.707-4.267,2.56-6.827,4.267
			c-2.56,1.707-5.973,4.267-8.533,5.973c-1.707,1.707-3.413,2.56-5.12,4.267c-11.093,8.533-19.627,17.067-28.16,29.013
			c0,0,0,0.853-0.853,0.853l-53.76-35.84L173.933,3.267z"/>
		<path style="fill:#80D6FA;" d="M194.413,404.334l-23.893,59.733L54.467,378.734l53.76-36.693
			c5.12,6.827,11.093,13.653,17.92,19.627c2.56,3.413,5.973,5.973,9.387,8.533c1.707,1.707,3.413,2.56,5.12,4.267
			c1.707,1.707,3.413,2.56,5.12,4.267c1.707,1.707,4.267,2.56,5.973,4.267c2.56,1.707,4.267,2.56,6.827,4.267
			c2.56,1.707,5.973,3.413,9.387,5.12c1.707,0.853,4.267,1.707,5.973,3.413c0,0,0,0,0.853,0c2.56,0.853,4.267,2.56,6.827,3.413
			s5.12,2.56,8.533,3.413C190.147,402.627,192.707,403.48,194.413,404.334"/>
		<path style="fill:#80D6FA;" d="M327.533,3.267L307.053,63c-9.387-3.413-19.627-5.973-30.72-6.827c-2.56,0-5.12-0.853-7.68-0.853
			c-2.56,0-5.973-0.853-9.387-0.853c-3.413,0-5.973,0-9.387,0c-3.413,0-6.827,0-9.387,0c-3.413,0-5.973,0-8.533,0.853
			c-3.413,0-5.973,0.853-9.387,0.853c-5.973,0.853-11.093,1.707-17.067,3.413c-0.853,0-0.853,0-1.707,0
			c-1.707,0-3.413,0.853-5.12,0.853c-1.707,0.853-2.56,0.853-4.267,1.707L172.226,2.414h155.307V3.267z"/>
	</g>
	<path style="fill:#FFE079;" d="M370.2,242.2c5.12,0,8.533-3.413,8.533-8.533c0-5.12-3.413-8.533-8.533-8.533
		s-8.533,3.413-8.533,8.533C361.667,238.787,365.08,242.2,370.2,242.2z M310.467,301.934c5.12,0,8.533-3.413,8.533-8.533
		s-3.413-8.533-8.533-8.533s-8.533,3.413-8.533,8.533S305.347,301.934,310.467,301.934z M250.733,361.667
		c5.12,0,8.533-3.413,8.533-8.533s-3.413-8.533-8.533-8.533c-5.12,0-8.533,3.413-8.533,8.533S245.613,361.667,250.733,361.667z
		 M250.733,242.2c5.12,0,8.533-3.413,8.533-8.533c0-5.12-3.413-8.533-8.533-8.533c-5.12,0-8.533,3.413-8.533,8.533
		C242.2,238.787,245.613,242.2,250.733,242.2z M191,301.934c5.12,0,8.533-3.413,8.533-8.533s-3.413-8.533-8.533-8.533
		c-5.12,0-8.533,3.413-8.533,8.533S185.88,301.934,191,301.934z M131.267,242.2c5.12,0,8.533-3.413,8.533-8.533
		c0-5.12-3.413-8.533-8.533-8.533c-5.12,0-8.533,3.413-8.533,8.533C122.733,238.787,126.147,242.2,131.267,242.2z M191,182.467
		c5.12,0,8.533-3.413,8.533-8.533c0-5.12-3.413-8.533-8.533-8.533c-5.12,0-8.533,3.413-8.533,8.533
		C182.467,179.054,185.88,182.467,191,182.467z M310.467,182.467c5.12,0,8.533-3.413,8.533-8.533c0-5.12-3.413-8.533-8.533-8.533
		s-8.533,3.413-8.533,8.533C301.933,179.054,305.347,182.467,310.467,182.467z M250.733,122.734c5.12,0,8.533-3.413,8.533-8.533
		c0-5.12-3.413-8.533-8.533-8.533c-5.12,0-8.533,3.413-8.533,8.533C242.2,119.32,245.613,122.734,250.733,122.734z"/>
</g>
<path style="fill:#51565F;" d="M157.867,503.467L157.867,503.467H72.533c-2.56,0-4.267-1.707-4.267-4.267s1.707-4.267,4.267-4.267
	h82.773l11.093-28.16L52.907,383.147l-0.853-0.853l0,0l0,0l0,0l0,0l0,0l0,0l0,0l0,0l0,0l0,0l0,0l0,0l0,0l0,0
	c0,0,0-0.853-0.853-0.853L0,236.374c0-0.853,0-0.853,0-1.707l0,0l0,0l0,0l0,0l0,0l0,0l0,0l0,0l0,0c0-0.853,0-0.853,0-1.707
	L51.2,87.893c0,0,0-0.853,0.853-0.853l0,0l0,0l0,0l0,0l0,0c0-0.853,0.853-0.853,0.853-0.853L172.373,0.853L173.227,0l0,0l0,0l0,0
	l0,0l0,0l0,0l0,0l0,0l0,0l0,0l0,0l0,0l0,0c0.853,0,0.853,0,1.707,0h153.6c0.853,0,0.853,0,1.707,0c0.853,0,0.853,0,0.853,0.853
	L450.56,86.187c0.853,0,0.853,0.853,0.853,0.853s0,0.853,0.853,0.853l51.2,145.067c0,0.853,0,0.853,0,1.707l0,0l0,0l0,0l0,0l0,0l0,0
	l0,0l0,0l0,0c0,0.853,0,0.853,0,1.707l-51.2,145.067c0,0,0,0.853-0.853,0.853l0,0l0,0l0,0l0,0l0,0l0,0l0,0l-0.853,0.853
	l-113.493,83.627l11.947,28.16h82.773c2.56,0,4.267,1.707,4.267,4.267s-1.707,4.267-4.267,4.267h-85.333l0,0H157.867
	L157.867,503.467z M163.84,494.934h174.933l-10.24-25.6H174.08L163.84,494.934z M177.493,460.8h146.773l-20.48-50.347
	c-17.067,5.12-34.133,7.68-52.907,7.68c-8.533,0-17.92-0.853-26.453-1.707c-2.56,0-4.267-2.56-3.413-5.12
	c0-2.56,2.56-4.267,5.12-3.413c8.533,0.853,17.067,1.707,24.747,1.707c18.773,0,36.693-2.56,53.76-8.533
	c2.56-0.853,4.267,0,5.12,2.56l23.04,54.613l107.52-78.507l-45.227-30.72c-9.387,12.8-19.627,22.187-35.84,33.28
	c-6.827,5.12-14.507,9.387-22.187,13.653c-1.707,0.853-4.267,0-5.973-1.707c-0.853-1.707,0-4.267,1.707-5.973
	c7.68-4.267,14.507-8.533,21.333-13.653c16.213-11.947,26.453-21.333,35.84-34.987c1.707-1.707,4.267-2.56,5.973-0.853l49.493,33.28
	l46.933-133.973h-58.027c0,17.92-3.413,34.987-8.533,52.053c-2.56,8.533-5.973,16.213-10.24,24.747
	c-0.853,2.56-3.413,2.56-5.973,1.707c-1.707-0.853-3.413-3.413-1.707-5.973c3.413-7.68,6.827-15.36,9.387-23.04
	c5.973-17.92,8.533-35.84,8.533-53.76c0-0.853,0.853-2.56,0.853-3.413c0.853-0.853,1.707-0.853,3.413-0.853h62.293L445.44,95.573
	l-45.227,30.72c11.093,16.213,20.48,34.987,25.6,51.2c2.56,8.533,5.12,17.067,5.973,25.6c0,2.56-0.853,4.267-3.413,5.12
	c-2.56,0-4.267-0.853-5.12-3.413c-1.707-8.533-3.413-16.213-5.973-23.893c-5.12-16.213-15.36-35.84-27.307-52.053
	c-0.853-0.853-0.853-1.707-0.853-3.413s0.853-2.56,1.707-2.56l48.64-33.28l-110.08-78.507l-17.92,50.347
	c16.213,5.973,31.573,13.653,46.08,24.747c6.827,5.12,13.653,11.093,20.48,17.067c1.707,1.707,1.707,4.267,0,5.973
	c-1.707,1.707-4.267,1.707-5.973,0c-5.973-5.973-12.8-11.093-18.773-16.213c-15.36-11.093-30.72-18.773-47.787-24.747h-0.853
	c-1.707-0.853-3.413-3.413-2.56-5.12v-0.853l18.773-53.76H179.2l17.92,50.347c17.067-5.12,34.133-7.68,52.053-7.68
	c8.533,0,17.92,0.853,26.453,1.707c2.56,0,4.267,2.56,3.413,5.12c0,2.56-2.56,4.267-5.12,3.413
	c-8.533-0.853-17.067-1.707-24.747-1.707c-18.773,0-36.693,2.56-53.76,8.533c-2.56,0.853-4.267-0.853-5.12-2.56l-19.627-54.613
	L60.586,89.6l45.227,30.72c9.387-12.8,19.627-22.187,35.84-33.28c6.827-5.12,14.507-9.387,22.187-13.653
	c1.707-0.853,4.267,0,5.973,1.707c0.853,1.707,0,4.267-1.707,5.973c-7.68,4.267-14.507,8.533-21.333,13.653
	c-16.213,11.947-26.453,21.333-35.84,34.987c-1.707,1.707-4.267,2.56-5.973,0.853L55.466,97.28L7.68,231.254h58.027
	c0-17.92,3.413-34.987,8.533-52.053c2.56-8.533,5.973-16.213,10.24-24.747c0.853-1.707,3.413-3.413,5.973-1.707
	c1.707,0.853,3.413,3.413,1.707,5.973c-3.413,7.68-6.827,15.36-9.387,23.04c-5.973,17.92-8.533,35.84-8.533,53.76
	c0,0.853-0.853,2.56-0.853,3.413c-0.853,0.853-1.707,0.853-3.413,0.853H7.68l46.933,133.973l45.227-30.72
	c-11.093-16.213-20.48-34.987-25.6-51.2c-2.56-8.533-5.12-17.067-5.973-25.6c0-2.56,0.853-4.267,3.413-5.12
	c2.56-0.853,4.267,0.853,5.12,3.413c1.707,8.533,3.413,16.213,5.973,23.893c5.12,16.213,15.36,35.84,27.307,52.053
	c0.853,0.853,0.853,1.707,0.853,3.413c0,0.853-0.853,2.56-1.707,2.56l-48.64,33.28l106.667,78.507l20.48-51.2
	c-16.213-5.973-31.573-13.653-46.08-24.747c-6.827-5.12-13.653-11.093-20.48-17.067c-1.707-1.707-1.707-4.267,0-5.973
	c1.707-1.707,4.267-1.707,5.973,0c5.973,5.973,12.8,11.093,18.773,16.213c15.36,11.093,30.72,18.773,48.64,24.747
	c2.56,0.853,3.413,2.56,2.56,5.12c0,0.853-0.853,0.853-0.853,1.707L177.493,460.8z M251.733,366.934c-6.827,0-12.8-5.973-12.8-12.8
	s5.973-12.8,12.8-12.8c6.827,0,12.8,5.973,12.8,12.8S258.56,366.934,251.733,366.934z M251.733,349.867
	c-2.56,0-4.267,1.707-4.267,4.267c0,2.56,1.707,4.267,4.267,4.267c2.56,0,4.267-1.707,4.267-4.267
	C256,351.574,254.293,349.867,251.733,349.867z M311.467,307.2c-6.827,0-12.8-5.973-12.8-12.8s5.973-12.8,12.8-12.8
	s12.8,5.973,12.8,12.8S318.293,307.2,311.467,307.2z M311.467,290.134c-2.56,0-4.267,1.707-4.267,4.267
	c0,2.56,1.707,4.267,4.267,4.267s4.267-1.707,4.267-4.267C315.733,291.84,314.027,290.134,311.467,290.134z M192,307.2
	c-6.827,0-12.8-5.973-12.8-12.8s5.973-12.8,12.8-12.8c6.827,0,12.8,5.973,12.8,12.8S198.827,307.2,192,307.2z M192,290.134
	c-2.56,0-4.267,1.707-4.267,4.267c0,2.56,1.707,4.267,4.267,4.267s4.267-1.707,4.267-4.267
	C196.267,291.84,194.56,290.134,192,290.134z M371.2,247.467c-6.827,0-12.8-5.973-12.8-12.8c0-6.827,5.973-12.8,12.8-12.8
	s12.8,5.973,12.8,12.8C384,241.493,378.027,247.467,371.2,247.467z M371.2,230.4c-2.56,0-4.267,1.707-4.267,4.267
	c0,2.56,1.707,4.267,4.267,4.267s4.267-1.707,4.267-4.267C375.467,232.107,373.76,230.4,371.2,230.4z M251.733,247.467
	c-6.827,0-12.8-5.973-12.8-12.8c0-6.827,5.973-12.8,12.8-12.8c6.827,0,12.8,5.973,12.8,12.8
	C264.533,241.493,258.56,247.467,251.733,247.467z M251.733,230.4c-2.56,0-4.267,1.707-4.267,4.267c0,2.56,1.707,4.267,4.267,4.267
	c2.56,0,4.267-1.707,4.267-4.267C256,232.107,254.293,230.4,251.733,230.4z M132.267,247.467c-6.827,0-12.8-5.973-12.8-12.8
	c0-6.827,5.973-12.8,12.8-12.8c6.827,0,12.8,5.973,12.8,12.8C145.067,241.493,139.093,247.467,132.267,247.467z M132.267,230.4
	c-2.56,0-4.267,1.707-4.267,4.267c0,2.56,1.707,4.267,4.267,4.267c2.56,0,4.267-1.707,4.267-4.267
	C136.533,232.107,134.827,230.4,132.267,230.4z M311.467,187.734c-6.827,0-12.8-5.973-12.8-12.8c0-6.827,5.973-12.8,12.8-12.8
	s12.8,5.973,12.8,12.8C324.267,181.76,318.293,187.734,311.467,187.734z M311.467,170.667c-2.56,0-4.267,1.707-4.267,4.267
	c0,2.56,1.707,4.267,4.267,4.267s4.267-1.707,4.267-4.267C315.733,172.374,314.027,170.667,311.467,170.667z M192,187.734
	c-6.827,0-12.8-5.973-12.8-12.8c0-6.827,5.973-12.8,12.8-12.8c6.827,0,12.8,5.973,12.8,12.8
	C204.8,181.76,198.827,187.734,192,187.734z M192,170.667c-2.56,0-4.267,1.707-4.267,4.267c0,2.56,1.707,4.267,4.267,4.267
	s4.267-1.707,4.267-4.267C196.267,172.374,194.56,170.667,192,170.667z M251.733,128c-6.827,0-12.8-5.973-12.8-12.8
	c0-6.827,5.973-12.8,12.8-12.8c6.827,0,12.8,5.973,12.8,12.8C264.533,122.027,258.56,128,251.733,128z M251.733,110.934
	c-2.56,0-4.267,1.707-4.267,4.267c0,2.56,1.707,4.267,4.267,4.267c2.56,0,4.267-1.707,4.267-4.267
	C256,112.64,254.293,110.934,251.733,110.934z"/>
</svg>